<svg width="24" height="24" viewBox="0 0 24 24" fill="none" xmlns="http://www.w3.org/2000/svg">
<path d="M23.2969 23.5H0.703125C0.314813 23.5 0 23.1852 0 22.7969V5.21875C0 4.44208 0.629578 3.8125 1.40625 3.8125H22.5938C23.3704 3.8125 24 4.44208 24 5.21875V22.7969C24 23.1852 23.6852 23.5 23.2969 23.5Z" fill="url(#paint0_linear)"/>
<path fill-rule="evenodd" clip-rule="evenodd" d="M9.89062 1H23.2969C23.6907 1 24 1.30933 24 1.70312V5.21875H0V1.70312C0 1.30933 0.309328 1 0.703125 1H2.85938L3.57239 1.53095L4.26562 1H5.67188L6.37036 1.56466L7.07812 1H8.48438L9.1777 1.5385L9.89062 1ZM3.5625 8.03125H20.4375C20.8261 8.03125 21.1406 8.34573 21.1406 8.73438V12.9531C21.1406 13.3418 20.8261 13.6562 20.4375 13.6562H3.5625C3.17386 13.6562 2.85938 13.3418 2.85938 12.9531V8.73438C2.85938 8.34573 3.17386 8.03125 3.5625 8.03125ZM3.5625 15.0625C3.17386 15.0625 2.85938 15.377 2.85938 15.7656V19.9844C2.85938 20.373 3.17386 20.6875 3.5625 20.6875H10.5938C10.9824 20.6875 11.2969 20.373 11.2969 19.9844V15.7656C11.2969 15.377 10.9824 15.0625 10.5938 15.0625H3.5625ZM13.4062 15.0625H20.4375C20.8261 15.0625 21.1406 15.377 21.1406 15.7656V19.9844C21.1406 20.373 20.8261 20.6875 20.4375 20.6875H13.4062C13.0176 20.6875 12.7031 20.373 12.7031 19.9844V15.7656C12.7031 15.377 13.0176 15.0625 13.4062 15.0625Z" fill="url(#paint1_linear)"/>
<path fill-rule="evenodd" clip-rule="evenodd" d="M2.85938 3.10938C2.85938 3.50308 3.1687 3.8125 3.5625 3.8125C3.9563 3.8125 4.26562 3.50308 4.26562 3.10938V1H2.85938V3.10938ZM5.67188 3.10938C5.67188 3.50308 5.9812 3.8125 6.375 3.8125C6.7688 3.8125 7.07812 3.50308 7.07812 3.10938V1H5.67188V3.10938ZM8.48438 3.10938V1H9.89062V3.10938C9.89062 3.50308 9.5813 3.8125 9.1875 3.8125C8.7937 3.8125 8.48438 3.50308 8.48438 3.10938Z" fill="url(#paint2_linear)"/>
<defs>
<linearGradient id="paint0_linear" x1="24" y1="23.5" x2="24" y2="3.8125" gradientUnits="userSpaceOnUse">
<stop stop-color="#ADDCFF"/>
<stop offset="0.5028" stop-color="#EAF6FF"/>
<stop offset="1" stop-color="#EAF6FF"/>
</linearGradient>
<linearGradient id="paint1_linear" x1="24" y1="20.6875" x2="24" y2="1" gradientUnits="userSpaceOnUse">
<stop stop-color="#5558FF"/>
<stop offset="1" stop-color="#00C0FF"/>
</linearGradient>
<linearGradient id="paint2_linear" x1="9.89062" y1="3.8125" x2="9.89062" y2="1" gradientUnits="userSpaceOnUse">
<stop stop-color="#ADDCFF"/>
<stop offset="0.5028" stop-color="#EAF6FF"/>
<stop offset="1" stop-color="#EAF6FF"/>
</linearGradient>
</defs>
</svg>
